<mxfile host="app.diagrams.net" modified="2021-11-03T09:39:56.169Z" agent="5.0 (Windows NT 10.0; Win64; x64) AppleWebKit/537.36 (KHTML, like Gecko) Chrome/95.0.4638.54 Safari/537.36 Edg/95.0.1020.40" etag="10LDwrdL2m5GUtL1K39W" version="15.6.6" type="github">
  <diagram id="RePcvV-Nt9we-_p8wogs" name="Page-1">
    <mxGraphModel dx="2272" dy="794" grid="1" gridSize="10" guides="1" tooltips="1" connect="1" arrows="1" fold="1" page="1" pageScale="1" pageWidth="850" pageHeight="1100" math="0" shadow="0">
      <root>
        <mxCell id="0" />
        <mxCell id="1" parent="0" />
        <mxCell id="9h44fmpicld-Fqoxd7rJ-7" style="edgeStyle=orthogonalEdgeStyle;rounded=0;orthogonalLoop=1;jettySize=auto;html=1;fontColor=default;strokeColor=default;labelBackgroundColor=default;" parent="1" source="9h44fmpicld-Fqoxd7rJ-1" target="9h44fmpicld-Fqoxd7rJ-3" edge="1">
          <mxGeometry relative="1" as="geometry" />
        </mxCell>
        <mxCell id="9h44fmpicld-Fqoxd7rJ-9" style="edgeStyle=orthogonalEdgeStyle;rounded=0;orthogonalLoop=1;jettySize=auto;html=1;labelBackgroundColor=default;fontColor=default;strokeColor=default;" parent="1" source="9h44fmpicld-Fqoxd7rJ-1" target="9h44fmpicld-Fqoxd7rJ-4" edge="1">
          <mxGeometry relative="1" as="geometry" />
        </mxCell>
        <mxCell id="9h44fmpicld-Fqoxd7rJ-10" style="edgeStyle=orthogonalEdgeStyle;rounded=0;orthogonalLoop=1;jettySize=auto;html=1;entryX=0.5;entryY=0;entryDx=0;entryDy=0;labelBackgroundColor=default;fontColor=default;strokeColor=default;" parent="1" source="9h44fmpicld-Fqoxd7rJ-1" target="9h44fmpicld-Fqoxd7rJ-6" edge="1">
          <mxGeometry relative="1" as="geometry">
            <Array as="points">
              <mxPoint x="470" y="110" />
              <mxPoint x="835" y="110" />
            </Array>
          </mxGeometry>
        </mxCell>
        <mxCell id="9h44fmpicld-Fqoxd7rJ-38" style="edgeStyle=orthogonalEdgeStyle;rounded=0;orthogonalLoop=1;jettySize=auto;html=1;labelBackgroundColor=default;fontColor=default;strokeColor=default;" parent="1" source="9h44fmpicld-Fqoxd7rJ-1" target="9h44fmpicld-Fqoxd7rJ-2" edge="1">
          <mxGeometry relative="1" as="geometry">
            <Array as="points">
              <mxPoint x="470" y="110" />
              <mxPoint x="20" y="110" />
            </Array>
          </mxGeometry>
        </mxCell>
        <mxCell id="9h44fmpicld-Fqoxd7rJ-1" value="start" style="rounded=1;whiteSpace=wrap;html=1;fillColor=default;strokeColor=default;fontColor=default;labelBackgroundColor=default;" parent="1" vertex="1">
          <mxGeometry x="410" y="30" width="120" height="60" as="geometry" />
        </mxCell>
        <mxCell id="9h44fmpicld-Fqoxd7rJ-25" style="edgeStyle=orthogonalEdgeStyle;rounded=0;orthogonalLoop=1;jettySize=auto;html=1;labelBackgroundColor=default;fontColor=default;strokeColor=default;" parent="1" source="9h44fmpicld-Fqoxd7rJ-2" target="9h44fmpicld-Fqoxd7rJ-24" edge="1">
          <mxGeometry relative="1" as="geometry" />
        </mxCell>
        <mxCell id="9h44fmpicld-Fqoxd7rJ-2" value="load game" style="rounded=1;whiteSpace=wrap;html=1;fontColor=default;strokeColor=default;fillColor=default;labelBackgroundColor=default;" parent="1" vertex="1">
          <mxGeometry x="-40" y="130" width="120" height="60" as="geometry" />
        </mxCell>
        <mxCell id="9h44fmpicld-Fqoxd7rJ-13" style="edgeStyle=orthogonalEdgeStyle;rounded=0;orthogonalLoop=1;jettySize=auto;html=1;labelBackgroundColor=default;fontColor=default;strokeColor=default;" parent="1" source="9h44fmpicld-Fqoxd7rJ-3" target="9h44fmpicld-Fqoxd7rJ-12" edge="1">
          <mxGeometry relative="1" as="geometry" />
        </mxCell>
        <mxCell id="9h44fmpicld-Fqoxd7rJ-3" value="new game" style="rounded=1;whiteSpace=wrap;html=1;fontColor=default;strokeColor=default;fillColor=default;labelBackgroundColor=default;" parent="1" vertex="1">
          <mxGeometry x="295" y="130" width="120" height="60" as="geometry" />
        </mxCell>
        <mxCell id="9h44fmpicld-Fqoxd7rJ-19" style="edgeStyle=orthogonalEdgeStyle;rounded=0;orthogonalLoop=1;jettySize=auto;html=1;labelBackgroundColor=default;fontColor=default;strokeColor=default;" parent="1" source="9h44fmpicld-Fqoxd7rJ-4" target="9h44fmpicld-Fqoxd7rJ-16" edge="1">
          <mxGeometry relative="1" as="geometry" />
        </mxCell>
        <mxCell id="9h44fmpicld-Fqoxd7rJ-4" value="leaderboard" style="rounded=1;whiteSpace=wrap;html=1;fontColor=default;strokeColor=default;fillColor=default;labelBackgroundColor=default;" parent="1" vertex="1">
          <mxGeometry x="530" y="130" width="120" height="60" as="geometry" />
        </mxCell>
        <mxCell id="DXepvm1jYD39emYCsP_6-7" style="edgeStyle=orthogonalEdgeStyle;rounded=0;orthogonalLoop=1;jettySize=auto;html=1;entryX=0.5;entryY=0;entryDx=0;entryDy=0;labelBackgroundColor=default;fontColor=default;strokeColor=default;fillColor=default;" edge="1" parent="1" source="9h44fmpicld-Fqoxd7rJ-6" target="DXepvm1jYD39emYCsP_6-6">
          <mxGeometry relative="1" as="geometry" />
        </mxCell>
        <mxCell id="9h44fmpicld-Fqoxd7rJ-6" value="quit" style="rounded=1;whiteSpace=wrap;html=1;fontColor=default;strokeColor=default;fillColor=default;labelBackgroundColor=default;" parent="1" vertex="1">
          <mxGeometry x="775" y="130" width="120" height="60" as="geometry" />
        </mxCell>
        <mxCell id="9h44fmpicld-Fqoxd7rJ-15" style="edgeStyle=orthogonalEdgeStyle;rounded=0;orthogonalLoop=1;jettySize=auto;html=1;labelBackgroundColor=default;fontColor=default;strokeColor=default;" parent="1" source="9h44fmpicld-Fqoxd7rJ-12" target="9h44fmpicld-Fqoxd7rJ-14" edge="1">
          <mxGeometry relative="1" as="geometry" />
        </mxCell>
        <mxCell id="9h44fmpicld-Fqoxd7rJ-12" value="get details" style="rounded=1;whiteSpace=wrap;html=1;fontColor=default;strokeColor=default;fillColor=default;labelBackgroundColor=default;" parent="1" vertex="1">
          <mxGeometry x="295" y="220" width="120" height="60" as="geometry" />
        </mxCell>
        <mxCell id="9h44fmpicld-Fqoxd7rJ-14" value="exit" style="rounded=1;whiteSpace=wrap;html=1;fontColor=default;strokeColor=default;fillColor=default;labelBackgroundColor=default;" parent="1" vertex="1">
          <mxGeometry x="295" y="310" width="120" height="60" as="geometry" />
        </mxCell>
        <mxCell id="9h44fmpicld-Fqoxd7rJ-20" style="edgeStyle=orthogonalEdgeStyle;rounded=0;orthogonalLoop=1;jettySize=auto;html=1;labelBackgroundColor=default;fontColor=default;strokeColor=default;" parent="1" source="9h44fmpicld-Fqoxd7rJ-16" target="9h44fmpicld-Fqoxd7rJ-18" edge="1">
          <mxGeometry relative="1" as="geometry" />
        </mxCell>
        <mxCell id="9h44fmpicld-Fqoxd7rJ-16" value="get usernames and rating" style="rounded=1;whiteSpace=wrap;html=1;fontColor=default;strokeColor=default;fillColor=default;labelBackgroundColor=default;" parent="1" vertex="1">
          <mxGeometry x="530" y="220" width="120" height="60" as="geometry" />
        </mxCell>
        <mxCell id="DXepvm1jYD39emYCsP_6-5" style="edgeStyle=orthogonalEdgeStyle;rounded=0;orthogonalLoop=1;jettySize=auto;html=1;labelBackgroundColor=default;fontColor=default;strokeColor=default;fillColor=default;" edge="1" parent="1" source="9h44fmpicld-Fqoxd7rJ-18" target="DXepvm1jYD39emYCsP_6-4">
          <mxGeometry relative="1" as="geometry" />
        </mxCell>
        <mxCell id="9h44fmpicld-Fqoxd7rJ-18" value="present names and ratings in order" style="rounded=1;whiteSpace=wrap;html=1;fontColor=default;strokeColor=default;fillColor=default;labelBackgroundColor=default;" parent="1" vertex="1">
          <mxGeometry x="530" y="310" width="120" height="60" as="geometry" />
        </mxCell>
        <mxCell id="9h44fmpicld-Fqoxd7rJ-28" style="edgeStyle=orthogonalEdgeStyle;rounded=0;orthogonalLoop=1;jettySize=auto;html=1;labelBackgroundColor=default;fontColor=default;strokeColor=default;" parent="1" source="9h44fmpicld-Fqoxd7rJ-24" target="9h44fmpicld-Fqoxd7rJ-27" edge="1">
          <mxGeometry relative="1" as="geometry" />
        </mxCell>
        <mxCell id="9h44fmpicld-Fqoxd7rJ-35" style="edgeStyle=orthogonalEdgeStyle;rounded=0;orthogonalLoop=1;jettySize=auto;html=1;labelBackgroundColor=default;fontColor=default;strokeColor=default;" parent="1" source="9h44fmpicld-Fqoxd7rJ-24" target="9h44fmpicld-Fqoxd7rJ-34" edge="1">
          <mxGeometry relative="1" as="geometry" />
        </mxCell>
        <mxCell id="9h44fmpicld-Fqoxd7rJ-24" value="is game stored" style="rhombus;whiteSpace=wrap;html=1;fontColor=default;strokeColor=default;fillColor=default;labelBackgroundColor=default;" parent="1" vertex="1">
          <mxGeometry x="-35" y="220" width="110" height="80" as="geometry" />
        </mxCell>
        <mxCell id="9h44fmpicld-Fqoxd7rJ-27" value="present message for 5 seconds" style="rounded=1;whiteSpace=wrap;html=1;labelBackgroundColor=default;fontColor=default;strokeColor=default;fillColor=default;" parent="1" vertex="1">
          <mxGeometry x="125" y="410" width="120" height="60" as="geometry" />
        </mxCell>
        <mxCell id="9h44fmpicld-Fqoxd7rJ-29" value="no" style="text;html=1;strokeColor=default;fillColor=none;align=center;verticalAlign=middle;whiteSpace=wrap;rounded=0;labelBackgroundColor=default;fontColor=default;shadow=0;" parent="1" vertex="1">
          <mxGeometry x="105" y="230" width="60" height="30" as="geometry" />
        </mxCell>
        <mxCell id="9h44fmpicld-Fqoxd7rJ-37" style="edgeStyle=orthogonalEdgeStyle;rounded=0;orthogonalLoop=1;jettySize=auto;html=1;labelBackgroundColor=default;fontColor=default;strokeColor=default;fillColor=default;" parent="1" source="9h44fmpicld-Fqoxd7rJ-34" target="9h44fmpicld-Fqoxd7rJ-36" edge="1">
          <mxGeometry relative="1" as="geometry" />
        </mxCell>
        <mxCell id="9h44fmpicld-Fqoxd7rJ-34" value="get stored game details&amp;nbsp;" style="rounded=1;whiteSpace=wrap;html=1;labelBackgroundColor=default;fontColor=default;strokeColor=default;fillColor=default;" parent="1" vertex="1">
          <mxGeometry x="-40" y="410" width="120" height="60" as="geometry" />
        </mxCell>
        <mxCell id="9h44fmpicld-Fqoxd7rJ-36" value="present board with stored details" style="rounded=1;whiteSpace=wrap;html=1;labelBackgroundColor=default;fontColor=default;strokeColor=default;fillColor=default;" parent="1" vertex="1">
          <mxGeometry x="-40" y="510" width="120" height="60" as="geometry" />
        </mxCell>
        <mxCell id="DXepvm1jYD39emYCsP_6-1" value="Alice" style="shape=umlActor;verticalLabelPosition=bottom;verticalAlign=top;html=1;outlineConnect=0;labelBackgroundColor=default;fontColor=default;strokeColor=default;fillColor=default;" vertex="1" parent="1">
          <mxGeometry x="365" y="20" width="30" height="60" as="geometry" />
        </mxCell>
        <mxCell id="DXepvm1jYD39emYCsP_6-3" value="yes" style="text;html=1;strokeColor=default;fillColor=none;align=center;verticalAlign=middle;whiteSpace=wrap;rounded=0;labelBackgroundColor=default;fontColor=default;" vertex="1" parent="1">
          <mxGeometry x="-40" y="320" width="60" height="30" as="geometry" />
        </mxCell>
        <mxCell id="DXepvm1jYD39emYCsP_6-4" value="if back, go back to start" style="rounded=1;whiteSpace=wrap;html=1;labelBackgroundColor=default;fontColor=default;strokeColor=default;fillColor=default;" vertex="1" parent="1">
          <mxGeometry x="530" y="410" width="120" height="60" as="geometry" />
        </mxCell>
        <mxCell id="DXepvm1jYD39emYCsP_6-6" value="exit program" style="rounded=1;whiteSpace=wrap;html=1;labelBackgroundColor=default;fontColor=default;strokeColor=default;fillColor=default;" vertex="1" parent="1">
          <mxGeometry x="775" y="220" width="120" height="60" as="geometry" />
        </mxCell>
      </root>
    </mxGraphModel>
  </diagram>
</mxfile>
